<svg xmlns="http://www.w3.org/2000/svg" width="32" height="32" viewBox="0 0 32 32" fill="none">
  <g clip-path="url(#clip0_676_2463)">
    <path d="M16 23.9961C20.4183 23.9961 24 20.4144 24 15.9961C24 11.5778 20.4183 7.99609 16 7.99609C11.5817 7.99609 8 11.5778 8 15.9961C8 20.4144 11.5817 23.9961 16 23.9961Z" fill="white"/>
    <path d="M15.9997 8.00003H29.8538C28.4499 5.56762 26.4304 3.54769 23.9982 2.14337C21.5661 0.739036 18.8071 -0.000195914 15.9986 3.89466e-08C13.1901 0.000195991 10.4312 0.739813 7.99928 2.14448C5.56732 3.54915 3.54806 5.56936 2.14453 8.00196L9.0716 20L9.0778 19.9984C8.37313 18.7833 8.00127 17.4038 7.99969 15.9991C7.99811 14.5944 8.36687 13.2142 9.0688 11.9974C9.77074 10.7807 10.781 9.77051 11.9978 9.06871C13.2147 8.36691 14.595 7.9983 15.9997 8.00003Z" fill="url(#paint0_linear_676_2463)"/>
    <path d="M16.0013 22.3337C19.4991 22.3337 22.3346 19.4981 22.3346 16.0003C22.3346 12.5025 19.4991 9.66699 16.0013 9.66699C12.5035 9.66699 9.66797 12.5025 9.66797 16.0003C9.66797 19.4981 12.5035 22.3337 16.0013 22.3337Z" fill="#1A73E8"/>
    <path d="M22.9299 20.0018L16.0029 31.9999C18.8113 32.0003 21.5704 31.2612 24.0026 29.8571C26.4349 28.4529 28.4545 26.4332 29.8586 24.0009C31.2626 21.5686 32.0016 18.8095 32.0011 16.001C32.0006 13.1926 31.2607 10.4337 29.8557 8.00195H16.0017L16 8.00815C17.4047 8.00544 18.7853 8.37311 20.0026 9.07407C21.2199 9.77504 22.2309 10.7845 22.9336 12.0008C23.6364 13.2171 24.0061 14.5971 24.0054 16.0018C24.0048 17.4065 23.6338 18.7862 22.9299 20.0018Z" fill="url(#paint1_linear_676_2463)"/>
    <path d="M9.07128 20.002L2.14421 8.00391C0.739629 10.4359 0.000104674 13.1948 1.11111e-08 16.0033C-0.000104652 18.8118 0.739214 21.5708 2.14362 24.0029C3.54802 26.435 5.568 28.4545 8.00045 29.8583C10.4329 31.2621 13.1921 32.0007 16.0005 31.9999L22.9276 20.0018L22.9231 19.9973C22.2231 21.2151 21.2144 22.2269 19.9987 22.9306C18.783 23.6343 17.4033 24.0051 15.9986 24.0056C14.5939 24.0061 13.2139 23.6362 11.9977 22.9333C10.7815 22.2304 9.77212 21.2193 9.07128 20.002Z" fill="url(#paint2_linear_676_2463)"/>
  </g>
  <defs>
    <linearGradient id="paint0_linear_676_2463" x1="2.14453" y1="10" x2="29.8538" y2="10" gradientUnits="userSpaceOnUse">
      <stop stop-color="#D93025"/>
      <stop offset="1" stop-color="#EA4335"/>
    </linearGradient>
    <linearGradient id="paint1_linear_676_2463" x1="13.817" y1="31.786" x2="27.6717" y2="7.78902" gradientUnits="userSpaceOnUse">
      <stop stop-color="#FCC934"/>
      <stop offset="1" stop-color="#FBBC04"/>
    </linearGradient>
    <linearGradient id="paint2_linear_676_2463" x1="17.7309" y1="31.0009" x2="3.87628" y2="7.00391" gradientUnits="userSpaceOnUse">
      <stop stop-color="#1E8E3E"/>
      <stop offset="1" stop-color="#34A853"/>
    </linearGradient>
    <clipPath id="clip0_676_2463">
      <rect width="32" height="32" fill="white"/>
    </clipPath>
  </defs>
</svg>