<svg xmlns="http://www.w3.org/2000/svg" width="24" height="20" viewBox="0 0 24 20" fill="none">
  <path d="M0.941406 1.76471C0.941406 0.790086 1.73149 0 2.70611 0H21.5296C22.5043 0 23.2943 0.790086 23.2943 1.76471C23.2943 2.73933 22.5043 3.52941 21.5296 3.52941H2.70611C1.73149 3.52941 0.941406 2.73933 0.941406 1.76471Z" fill="#47464A"/>
  <path d="M0.941406 10C0.941406 9.02538 1.73149 8.23529 2.70611 8.23529H21.5296C22.5043 8.23529 23.2943 9.02538 23.2943 10C23.2943 10.9746 22.5043 11.7647 21.5296 11.7647H2.70611C1.73149 11.7647 0.941406 10.9746 0.941406 10Z" fill="#47464A"/>
  <path d="M2.70611 16.4706C1.73149 16.4706 0.941406 17.2607 0.941406 18.2353C0.941406 19.2099 1.73149 20 2.70611 20H21.5296C22.5043 20 23.2943 19.2099 23.2943 18.2353C23.2943 17.2607 22.5043 16.4706 21.5296 16.4706H2.70611Z" fill="#47464A"/>
</svg>